<mxfile host="2fa74879-6c83-4557-bd33-31a24f953e86" modified="2020-09-06T01:04:49.407Z" agent="5.0 (Windows NT 10.0; Win64; x64) AppleWebKit/537.36 (KHTML, like Gecko) Code/1.48.2 Chrome/78.0.3904.130 Electron/7.3.2 Safari/537.36" etag="QsbW-w-aYxGwnMgkbZjS" version="13.1.3">
    <diagram id="zOA-3Uhty-ZAOK83Lhyr" name="Page-1">
        <mxGraphModel dx="1112" dy="508" grid="1" gridSize="10" guides="1" tooltips="1" connect="1" arrows="1" fold="1" page="1" pageScale="1" pageWidth="827" pageHeight="1169" math="0" shadow="0">
            <root>
                <mxCell id="0"/>
                <mxCell id="1" parent="0"/>
                <mxCell id="DDkgpd7mWiK3ZUo_ZE8g-20" value="&lt;div&gt;Windows 10&lt;br&gt;&lt;/div&gt;" style="rounded=0;whiteSpace=wrap;html=1;strokeWidth=3;fontFamily=calibri;fillColor=none;align=left;verticalAlign=top;spacingLeft=8;fontStyle=1" parent="1" vertex="1">
                    <mxGeometry x="129" y="10" width="571" height="310" as="geometry"/>
                </mxCell>
                <mxCell id="DDkgpd7mWiK3ZUo_ZE8g-18" value="&lt;div&gt;Persistent&lt;br&gt;&lt;/div&gt;&lt;div&gt;Target containers&lt;/div&gt;" style="whiteSpace=wrap;html=1;aspect=fixed;fillColor=#dae8fc;strokeColor=#6c8ebf;rounded=1;strokeWidth=3;fontFamily=calibri;fontColor=#000000;" parent="1" vertex="1">
                    <mxGeometry x="575" y="205" width="80" height="80" as="geometry"/>
                </mxCell>
                <mxCell id="DDkgpd7mWiK3ZUo_ZE8g-17" value="Ephemeral containers" style="whiteSpace=wrap;html=1;aspect=fixed;fillColor=#dae8fc;strokeColor=#6c8ebf;rounded=1;strokeWidth=3;fontFamily=calibri;fontColor=#000000;" parent="1" vertex="1">
                    <mxGeometry x="169" y="110" width="80" height="80" as="geometry"/>
                </mxCell>
                <mxCell id="DDkgpd7mWiK3ZUo_ZE8g-6" value="Molecule Container" style="whiteSpace=wrap;html=1;aspect=fixed;fillColor=#dae8fc;strokeColor=#6c8ebf;rounded=1;strokeWidth=3;fontFamily=calibri;fontColor=#000000;" parent="1" vertex="1">
                    <mxGeometry x="280" y="215" width="80" height="80" as="geometry"/>
                </mxCell>
                <mxCell id="DDkgpd7mWiK3ZUo_ZE8g-7" value="&lt;div&gt;Persistent&lt;br&gt;&lt;/div&gt;&lt;div&gt;&amp;nbsp;containers&lt;br&gt;&lt;/div&gt;" style="whiteSpace=wrap;html=1;aspect=fixed;fillColor=#dae8fc;strokeColor=#6c8ebf;rounded=1;strokeWidth=3;fontFamily=calibri;fontColor=#000000;" parent="1" vertex="1">
                    <mxGeometry x="565" y="215" width="80" height="80" as="geometry"/>
                </mxCell>
                <mxCell id="DDkgpd7mWiK3ZUo_ZE8g-8" value="&lt;div&gt;Docker Host&lt;/div&gt;&lt;div&gt;WSL 2&lt;br&gt;&lt;/div&gt;" style="rounded=0;whiteSpace=wrap;html=1;strokeWidth=3;fontFamily=calibri;" parent="1" vertex="1">
                    <mxGeometry x="440" y="23" width="120" height="60" as="geometry"/>
                </mxCell>
                <mxCell id="DDkgpd7mWiK3ZUo_ZE8g-11" style="edgeStyle=orthogonalEdgeStyle;rounded=0;orthogonalLoop=1;jettySize=auto;html=1;fontFamily=Helvetica;exitX=0.5;exitY=0;exitDx=0;exitDy=0;entryX=1;entryY=0.5;entryDx=0;entryDy=0;endArrow=block;endFill=1;" parent="1" source="DDkgpd7mWiK3ZUo_ZE8g-7" target="DDkgpd7mWiK3ZUo_ZE8g-8" edge="1">
                    <mxGeometry relative="1" as="geometry">
                        <mxPoint x="500" y="155" as="sourcePoint"/>
                        <mxPoint x="560" y="53" as="targetPoint"/>
                        <Array as="points">
                            <mxPoint x="605" y="53"/>
                        </Array>
                    </mxGeometry>
                </mxCell>
                <mxCell id="DDkgpd7mWiK3ZUo_ZE8g-15" style="edgeStyle=orthogonalEdgeStyle;rounded=0;orthogonalLoop=1;jettySize=auto;html=1;fontFamily=calibri;shape=link;dashed=1;width=-3;exitX=0.115;exitY=0.001;exitDx=0;exitDy=0;exitPerimeter=0;entryX=0.25;entryY=1;entryDx=0;entryDy=0;" parent="1" source="FNq7ktvEKgzT18VKn9Rj-1" target="DDkgpd7mWiK3ZUo_ZE8g-8" edge="1">
                    <mxGeometry relative="1" as="geometry">
                        <mxPoint x="300" y="200" as="sourcePoint"/>
                        <Array as="points">
                            <mxPoint x="470" y="110"/>
                        </Array>
                        <mxPoint x="470" y="90" as="targetPoint"/>
                    </mxGeometry>
                </mxCell>
                <mxCell id="DDkgpd7mWiK3ZUo_ZE8g-16" value="Docker socket binding" style="edgeLabel;html=1;align=center;verticalAlign=middle;resizable=0;points=[];fontFamily=calibri;" parent="DDkgpd7mWiK3ZUo_ZE8g-15" vertex="1" connectable="0">
                    <mxGeometry x="-0.2621" y="1" relative="1" as="geometry">
                        <mxPoint x="-69" y="-3.5700000000000003" as="offset"/>
                    </mxGeometry>
                </mxCell>
                <mxCell id="DDkgpd7mWiK3ZUo_ZE8g-13" value="Testing containers" style="whiteSpace=wrap;html=1;aspect=fixed;fillColor=#dae8fc;strokeColor=#6c8ebf;rounded=1;strokeWidth=3;fontFamily=calibri;fontColor=#000000;" parent="1" vertex="1">
                    <mxGeometry x="160" y="122" width="80" height="80" as="geometry"/>
                </mxCell>
                <mxCell id="DDkgpd7mWiK3ZUo_ZE8g-14" value="Molecule testing" style="edgeStyle=orthogonalEdgeStyle;rounded=0;orthogonalLoop=1;jettySize=auto;html=1;fontFamily=Helvetica;" parent="1" source="DDkgpd7mWiK3ZUo_ZE8g-6" target="DDkgpd7mWiK3ZUo_ZE8g-13" edge="1">
                    <mxGeometry x="0.2026" y="-15" relative="1" as="geometry">
                        <mxPoint x="290" y="195" as="sourcePoint"/>
                        <mxPoint x="190" y="255" as="targetPoint"/>
                        <Array as="points"/>
                        <mxPoint x="-15" y="-15" as="offset"/>
                    </mxGeometry>
                </mxCell>
                <mxCell id="DDkgpd7mWiK3ZUo_ZE8g-19" value="ssh&lt;br&gt;&lt;div&gt;(Ansible development)&lt;/div&gt;" style="edgeStyle=orthogonalEdgeStyle;rounded=0;orthogonalLoop=1;jettySize=auto;html=1;fontFamily=Helvetica;exitX=0.5;exitY=1;exitDx=0;exitDy=0;entryX=0;entryY=0.5;entryDx=0;entryDy=0;dashed=1;" parent="1" source="FNq7ktvEKgzT18VKn9Rj-1" target="DDkgpd7mWiK3ZUo_ZE8g-7" edge="1">
                    <mxGeometry x="-0.6923" relative="1" as="geometry">
                        <mxPoint x="580" y="375" as="sourcePoint"/>
                        <mxPoint x="460" y="375" as="targetPoint"/>
                        <Array as="points"/>
                        <mxPoint as="offset"/>
                    </mxGeometry>
                </mxCell>
                <mxCell id="FNq7ktvEKgzT18VKn9Rj-1" value="&lt;div&gt;VSCode&lt;/div&gt;&lt;div&gt;DEV Container&lt;/div&gt;&lt;div&gt;Ansible&lt;br&gt;&lt;/div&gt;" style="whiteSpace=wrap;html=1;aspect=fixed;fillColor=#dae8fc;strokeColor=#6c8ebf;rounded=1;strokeWidth=3;fontFamily=calibri;fontColor=#000000;" parent="1" vertex="1">
                    <mxGeometry x="460" y="110" width="80" height="80" as="geometry"/>
                </mxCell>
                <mxCell id="FNq7ktvEKgzT18VKn9Rj-3" style="edgeStyle=orthogonalEdgeStyle;rounded=0;orthogonalLoop=1;jettySize=auto;html=1;fontFamily=Helvetica;exitX=0.5;exitY=0;exitDx=0;exitDy=0;entryX=0;entryY=0.5;entryDx=0;entryDy=0;endArrow=block;endFill=1;" parent="1" source="DDkgpd7mWiK3ZUo_ZE8g-6" target="DDkgpd7mWiK3ZUo_ZE8g-8" edge="1">
                    <mxGeometry relative="1" as="geometry">
                        <mxPoint x="437" y="272" as="sourcePoint"/>
                        <mxPoint x="392" y="110" as="targetPoint"/>
                        <Array as="points">
                            <mxPoint x="320" y="215"/>
                            <mxPoint x="320" y="53"/>
                        </Array>
                    </mxGeometry>
                </mxCell>
                <mxCell id="FNq7ktvEKgzT18VKn9Rj-4" style="edgeStyle=orthogonalEdgeStyle;rounded=0;orthogonalLoop=1;jettySize=auto;html=1;fontFamily=Helvetica;exitX=0.5;exitY=0;exitDx=0;exitDy=0;endArrow=block;endFill=1;entryX=0.5;entryY=1;entryDx=0;entryDy=0;" parent="1" source="FNq7ktvEKgzT18VKn9Rj-1" target="DDkgpd7mWiK3ZUo_ZE8g-8" edge="1">
                    <mxGeometry relative="1" as="geometry">
                        <mxPoint x="675" y="215" as="sourcePoint"/>
                        <mxPoint x="630" y="53" as="targetPoint"/>
                        <Array as="points">
                            <mxPoint x="500" y="110"/>
                            <mxPoint x="500" y="110"/>
                        </Array>
                    </mxGeometry>
                </mxCell>
                <mxCell id="FNq7ktvEKgzT18VKn9Rj-5" style="edgeStyle=orthogonalEdgeStyle;rounded=0;orthogonalLoop=1;jettySize=auto;html=1;fontFamily=calibri;shape=link;dashed=1;width=-3;exitX=0.75;exitY=0;exitDx=0;exitDy=0;entryX=0;entryY=0.75;entryDx=0;entryDy=0;" parent="1" source="DDkgpd7mWiK3ZUo_ZE8g-6" target="DDkgpd7mWiK3ZUo_ZE8g-8" edge="1">
                    <mxGeometry relative="1" as="geometry">
                        <mxPoint x="420.00000000000006" y="149.08000000000004" as="sourcePoint"/>
                        <Array as="points">
                            <mxPoint x="340" y="68"/>
                        </Array>
                        <mxPoint x="420.8" y="122" as="targetPoint"/>
                    </mxGeometry>
                </mxCell>
            </root>
        </mxGraphModel>
    </diagram>
</mxfile>